<svg width="314" height="314" viewBox="0 0 314 314" fill="none" xmlns="http://www.w3.org/2000/svg">
<g style="mix-blend-mode:multiply" clip-path="url(#clip0_4_814)">
<g style="mix-blend-mode:screen">
<path d="M314 128.606C314 128.292 314 127.957 313.979 127.653C313.571 102.401 296.511 81.1482 273.35 74.4058C270.169 73.4845 266.882 72.8249 263.502 72.469C261.555 72.2596 259.577 72.1549 257.578 72.1549C244.192 72.1549 231.528 76.7929 221.397 85.2836C211.601 77.086 199 72.1549 185.258 72.1549H157.01C133.734 72.1549 111.222 81.881 95.2508 98.8834C79.0704 116.116 70.9697 138.667 72.4454 162.36C75.0933 204.897 109.16 238.933 151.673 241.572C153.494 241.687 155.305 241.739 157.094 241.739C170.26 241.739 182.935 238.776 194.426 233.112C195.117 232.777 195.839 232.61 196.551 232.61C198.958 232.61 201.145 234.494 201.114 237.206C201.083 239.739 203.301 241.739 205.834 241.739H217.839C231.057 241.739 241.743 231.029 241.743 217.827V129.119C241.743 125.256 242.947 121.435 245.427 118.472C248.504 114.807 252.889 112.797 257.568 112.797C266.097 112.797 273.057 119.592 273.34 128.051V245.843C273.34 261.003 261.032 273.336 245.856 273.336H156.99C92.8436 273.336 40.6184 221.125 40.6184 156.926C40.6184 94.4443 90.1329 43.2906 151.955 40.6523C154.76 40.5371 156.99 38.2443 156.99 35.428V5.24458C156.99 2.2922 154.551 -0.0948389 151.6 0.00985567C67.5264 2.85755 0 72.1549 0 156.937C0 203.054 19.9586 244.587 51.6914 273.346C79.5832 298.599 116.528 313.989 157 313.989H245.867C283.481 313.989 313.979 283.481 313.979 245.854V128.606H314ZM201.125 155.774C201.125 168.254 196.394 180.451 187.362 189.036C178.204 197.694 166.116 201.945 153.494 200.971C131.578 199.296 114.372 181.801 113.012 159.847C112.227 147.347 116.528 135.485 125.11 126.491C133.671 117.498 145.78 112.818 158.162 112.818H185.248C193.997 112.818 201.114 119.917 201.114 128.721V155.774H201.125Z" fill="#DD0006" style="mix-blend-mode:multiply"/>
</g>
</g>
<defs>
<clipPath id="clip0_4_814">
<rect width="314" height="314" fill="white"/>
</clipPath>
</defs>
</svg>
